<svg width="220" height="124" viewBox="0 0 85 24" fill="none" xmlns="http://www.w3.org/2000/svg">
<g filter="url(#filter0_d_2_25)">
<path d="M74.5232 19.858C73.6103 19.697 72.8344 19.2678 72.1955 18.5703C71.571 17.8754 71.1362 16.9947 70.891 15.9281C70.6458 14.8615 70.6329 13.7059 70.8524 12.4613C71.0801 11.1694 71.5031 10.0419 72.1211 9.07878C72.7536 8.11819 73.5008 7.39712 74.3626 6.91556C75.2271 6.41824 76.1158 6.25006 77.0287 6.41102C77.8546 6.55665 78.6781 6.96989 79.4993 7.65074C79.8688 5.55542 80.1813 3.78306 80.4368 2.33366C80.7701 2.39242 81.1599 2.46928 81.6063 2.56424C82.07 2.64599 82.5323 2.73563 82.9932 2.83314C83.4541 2.93065 83.8425 3.01539 84.1585 3.08735C84.0168 3.89082 83.8474 4.85183 83.6501 5.97039C83.4557 7.07319 83.2401 8.25349 83.0034 9.51128C82.7811 10.7716 82.553 12.0228 82.3191 13.2648C82.1024 14.4937 81.8924 15.6425 81.689 16.7112C81.5001 17.7825 81.3331 18.6871 81.1881 19.425C81.0575 20.1654 80.9628 20.6604 80.9038 20.9099C80.2808 20.8001 79.646 20.6719 78.9995 20.5254C78.3503 20.3947 77.817 20.2844 77.3995 20.1946C77.4356 19.9898 77.4798 19.697 77.532 19.3164C76.5114 19.8512 75.5085 20.0317 74.5232 19.858ZM74.2676 12.2837C74.087 13.3078 74.0332 14.2486 74.1061 15.1061C74.1962 15.9505 74.388 16.6422 74.6814 17.1812C74.9921 17.7071 75.3865 18.0122 75.8646 18.0965C76.5167 18.2114 77.1916 17.9 77.8894 17.1621C78.0388 16.23 78.2091 15.1798 78.4001 14.0114C78.6085 12.8299 78.8196 11.6325 79.0335 10.4195C78.8789 9.85613 78.6382 9.39946 78.3114 9.04946C78.002 8.68625 77.6299 8.46633 77.1952 8.38968C76.5142 8.2696 75.9114 8.55317 75.3869 9.2404C74.8796 9.91442 74.5065 10.9289 74.2676 12.2837Z" fill="white"/>
<path d="M57.0963 22C57.0835 21.5485 57.0706 20.9277 57.0578 20.1376C57.0449 19.3333 57.0321 18.4092 57.0193 17.3651C57.0193 16.3069 57.0128 15.1711 57 13.9577C57 12.7302 57 11.4674 57 10.1693C57.2825 10.1693 57.6293 10.1764 58.0403 10.1905C58.4513 10.1905 58.8622 10.1975 59.2732 10.2116C59.697 10.2257 60.0438 10.2399 60.3135 10.254C60.3135 10.6067 60.3135 10.9665 60.3135 11.3333C61.4051 10.4444 62.5161 10 63.6462 10C64.6865 10 65.5277 10.4021 66.1699 11.2063C66.812 12.0106 67.2744 13.2945 67.5569 15.0582C67.8523 16.8219 68 19.1358 68 22C67.7046 22 67.3514 21.9929 66.9405 21.9788C66.5295 21.9788 66.1249 21.9718 65.7268 21.9577C65.3287 21.9436 64.9819 21.9295 64.6865 21.9153C64.6865 19.418 64.6223 17.4215 64.4939 15.9259C64.3654 14.4303 64.1535 13.351 63.8581 12.6878C63.5628 12.0247 63.1646 11.6931 62.6637 11.6931C62.2528 11.6931 61.8354 11.8836 61.4116 12.2645C60.9877 12.6455 60.6217 13.1464 60.3135 13.7672C60.3006 14.9665 60.2878 16.1023 60.275 17.1746C60.275 18.2469 60.2685 19.1993 60.2557 20.0317C60.2428 20.8501 60.23 21.478 60.2172 21.9153C59.819 21.9295 59.331 21.9436 58.7531 21.9577C58.188 21.9859 57.6357 22 57.0963 22Z" fill="white"/>
<path d="M35.6448 21.3063C35.3517 21.3579 34.9907 21.4135 34.5617 21.473C34.1354 21.5481 33.7211 21.6131 33.3187 21.6678C32.9297 21.7202 32.6205 21.7585 32.3913 21.7827C32.045 19.8184 31.718 17.964 31.4104 16.2196C31.1161 14.4729 30.8607 12.9462 30.644 11.6395C30.4379 10.3148 30.2847 9.32907 30.1844 8.68241C30.6106 8.60725 31.1115 8.52703 31.6871 8.44175C32.2626 8.35647 32.7796 8.28961 33.238 8.24119C33.3095 8.56885 33.4018 9.01438 33.5149 9.57777C34.416 8.30084 35.4126 7.56608 36.5049 7.37349C37.0644 7.27484 37.5755 7.33055 38.0383 7.5406C38.5011 7.75066 38.9278 8.14533 39.3184 8.72461C40.1601 7.34472 41.2003 6.54556 42.4391 6.32713C43.8644 6.07582 45.0705 6.76245 46.0574 8.38702C47.0576 10.0093 47.8778 12.6354 48.5179 16.2656C48.5927 16.6899 48.6594 17.1075 48.7182 17.5185C48.7874 17.9113 48.8503 18.3458 48.9068 18.822C48.5449 18.9506 48.0537 19.0858 47.4332 19.2277C46.8127 19.3695 46.1694 19.4991 45.5034 19.6165C45.427 18.9495 45.329 18.2376 45.2093 17.4809C45.1029 16.7219 44.9846 15.9731 44.8544 15.2345C44.4249 12.7987 43.981 11.0216 43.5229 9.90335C43.0753 8.76701 42.5984 8.24346 42.0923 8.33271C41.7459 8.39378 41.4093 8.7043 41.0822 9.26427C40.7685 9.8219 40.5555 10.4833 40.4432 11.2485C40.68 11.9683 40.9043 12.8118 41.1161 13.7791C41.3384 14.7283 41.5548 15.8001 41.7654 16.9944C41.9483 18.0316 42.1071 19.0488 42.2417 20.0458C41.978 20.1085 41.6411 20.1841 41.231 20.2727C40.8341 20.3588 40.4159 20.4407 39.9764 20.5182C39.5529 20.6091 39.168 20.685 38.8217 20.7461C38.7148 19.9062 38.5835 19.0057 38.4277 18.0448C38.2854 17.0814 38.138 16.1676 37.9856 15.3033C37.7223 13.8104 37.4731 12.631 37.238 11.765C37.0135 10.881 36.7814 10.2657 36.5417 9.91905C36.3126 9.55436 36.0515 9.39786 35.7585 9.44953C35.3988 9.51294 35.0569 9.8325 34.7326 10.4082C34.4217 10.9815 34.1915 11.6622 34.042 12.4501C34.2687 13.6578 34.5164 15.0238 34.7852 16.5482C35.0645 18.0545 35.3511 19.6405 35.6448 21.3063Z" fill="white"/>
<path d="M26.3541 10.0824C26.2361 8.5913 26.1311 7.31736 26.0393 6.26058C26.4721 6.18819 26.9967 6.13029 27.613 6.08686C28.2425 6.02895 28.7999 6 29.2851 6C29.3244 6.99888 29.3507 7.78061 29.3638 8.34519C29.3769 8.8953 29.3835 9.38027 29.3835 9.80009C28.9376 9.81456 28.472 9.85075 27.9868 9.90866C27.5147 9.95209 26.9704 10.01 26.3541 10.0824ZM28.9704 21.2003C28.4327 21.1424 27.895 21.099 27.3573 21.0701C26.8196 21.0266 26.3672 21.0049 26 21.0049C26.0525 20.3969 26.0984 19.7527 26.1377 19.0723C26.177 18.3774 26.2033 17.7405 26.2164 17.1614C26.7672 17.1614 27.3245 17.1903 27.8884 17.2483C28.4655 17.2917 28.9769 17.3568 29.4228 17.4437C29.3572 18.1965 29.2851 18.8769 29.2064 19.4849C29.1408 20.0784 29.0622 20.6502 28.9704 21.2003Z" fill="white"/>
<path d="M18.6063 21.3774C17.5441 21.3774 16.5867 21.1096 15.7343 20.574C14.895 20.0239 14.2262 19.2856 13.7278 18.3591C13.2426 17.4181 13 16.3541 13 15.167C13 13.9799 13.2361 12.9231 13.7082 11.9966C14.1934 11.0701 14.8491 10.3391 15.6753 9.80345C16.5146 9.26782 17.4654 9 18.5276 9C19.5243 9 20.4161 9.2461 21.2029 9.7383C22.0029 10.216 22.6455 10.8892 23.1307 11.7578C23.629 12.6264 23.9241 13.647 24.0159 14.8196L16.2064 16.4265C16.4556 17.3674 16.849 18.1347 17.3867 18.7282C17.9244 19.3073 18.5276 19.5968 19.1964 19.5968C19.8128 19.5968 20.4226 19.3652 21.0259 18.9019C21.6291 18.4242 22.0947 17.8162 22.4225 17.0779L23.8192 18.3808C23.1766 19.3362 22.4029 20.0745 21.498 20.5957C20.5931 21.1168 19.6292 21.3774 18.6063 21.3774ZM15.9507 14.2984C15.9507 14.3853 15.9507 14.4576 15.9507 14.5156L20.5341 13.8207C20.4423 12.8942 20.1734 12.1486 19.7276 11.5841C19.2817 11.0195 18.7374 10.7372 18.0949 10.7372C17.426 10.7372 16.9015 11.0557 16.5212 11.6926C16.1408 12.3151 15.9507 13.1837 15.9507 14.2984Z" fill="white"/>
<path d="M7.80948 20.8507C7.10132 18.8819 6.38004 17.2315 5.64565 15.8997C4.91125 14.5534 4.2162 13.5979 3.56049 13.0333C3.58672 14.2494 3.60639 15.5088 3.61951 16.8117C3.63262 18.1146 3.63918 19.3958 3.63918 20.6552C3.04904 20.6552 2.42612 20.6408 1.77041 20.6118C1.12782 20.5973 0.570466 20.5828 0.0983562 20.5684C0.0983562 19.3379 0.0983562 18.0567 0.0983562 16.7249C0.0983562 15.393 0.0917991 14.0829 0.0786849 12.7945C0.0786849 11.4916 0.0721279 10.2756 0.0590138 9.1464C0.0458996 8.01723 0.0327854 7.03283 0.0196713 6.19319C0.0196713 5.35355 0.0131142 4.73106 0 4.32572C0.668822 4.20991 1.33109 4.13029 1.9868 4.08686C2.65562 4.02895 3.27854 4 3.85556 4C5.32435 4 6.60954 4.17372 7.71113 4.52115C8.81272 4.85411 9.6717 5.33908 10.2881 5.97604C10.9044 6.59853 11.2126 7.35855 11.2126 8.2561C11.2126 8.90754 11.0487 9.53003 10.7208 10.1236C10.4061 10.7171 9.97332 11.231 9.42253 11.6653C8.87173 12.0996 8.24881 12.4036 7.55376 12.5773C7.76358 12.8524 8.02587 13.2433 8.34061 13.7499C8.65535 14.2421 8.9832 14.7995 9.32417 15.422C9.67825 16.03 10.0192 16.6452 10.3471 17.2677C10.6749 17.8902 10.97 18.4765 11.2323 19.0266C11.4946 19.5623 11.6847 19.9965 11.8027 20.3295C11.5929 20.3729 11.3044 20.4236 10.9372 20.4815C10.5831 20.5394 10.2028 20.5901 9.79628 20.6335C9.40285 20.6914 9.02254 20.7348 8.65535 20.7638C8.30127 20.8072 8.01931 20.8362 7.80948 20.8507ZM3.32444 5.69375C3.36378 6.3452 3.40313 7.2355 3.44247 8.36467C3.48181 9.49384 3.52115 10.7533 3.56049 12.143C4.8588 12.0851 5.8817 11.7884 6.62921 11.2527C7.38983 10.7026 7.77014 9.9788 7.77014 9.08126C7.77014 8.42981 7.57343 7.85075 7.18 7.34408C6.79969 6.82292 6.27513 6.41758 5.6063 6.12805C4.93748 5.83852 4.17686 5.69375 3.32444 5.69375Z" fill="white"/>
<path d="M50.5169 16.3727C50.3521 13.7645 50.2247 11.1117 50.1348 8.41413C50.0449 5.71661 50 2.9119 50 0H54C54 2.9119 53.9551 5.71661 53.8652 8.41413C53.7903 11.1117 53.6704 13.7645 53.5056 16.3727H50.5169ZM50.427 22V18.6772H53.573V22H50.427Z" fill="#00DDA8"/>
</g>
<defs>
<filter id="filter0_d_2_25" x="0" y="0" width="84.6585" height="24" filterUnits="userSpaceOnUse" color-interpolation-filters="sRGB">
<feFlood flood-opacity="0" result="BackgroundImageFix"/>
<feColorMatrix in="SourceAlpha" type="matrix" values="0 0 0 0 0 0 0 0 0 0 0 0 0 0 0 0 0 0 127 0" result="hardAlpha"/>
<feOffset dx="0.5" dy="2"/>
<feComposite in2="hardAlpha" operator="out"/>
<feColorMatrix type="matrix" values="0 0 0 0 0 0 0 0 0 0 0 0 0 0 0 0 0 0 1 0"/>
<feBlend mode="normal" in2="BackgroundImageFix" result="effect1_dropShadow_2_25"/>
<feBlend mode="normal" in="SourceGraphic" in2="effect1_dropShadow_2_25" result="shape"/>
</filter>
</defs>
</svg>
